# xmcd
#
# Track frame offsets:
#	150
#	7694
#	16581
#	27217
#	39898
#	49668
#	61441
#	71297
#	75821
#	79270
#	90217
#	98370
#	108418
#	118316
#	129207
#	140439
#	147071
#	155468
#	171759
#	188502
#	209616
#	226574
#	241366
#	247441
#	252627
#	273361
#	285192
#	300277
#	315738
#	326715
#
# Disc length: 4530
#
# Revision: 1
# Processed by: cddbd v1.5.1PL0 Copyright (c) Steve Scherf et al.
# Submitted via: dBpowerAMP V4.0
# Normalized: r0:TRMNUM
#
DISCID=7311b01e
DTITLE=Various Artist - cd to mp3
DYEAR=2004
DGENRE=Blues
TTITLE0=Track01
TTITLE1=Track02
TTITLE2=Track03
TTITLE3=Track04
TTITLE4=Track05
TTITLE5=Track06
TTITLE6=Track07
TTITLE7=Track08
TTITLE8=Track09
TTITLE9=Track10
TTITLE10=Track11
TTITLE11=Track12
TTITLE12=Track13
TTITLE13=Track14
TTITLE14=Track15
TTITLE15=Track16
TTITLE16=Track17
TTITLE17=Track18
TTITLE18=Track19
TTITLE19=Track20
TTITLE20=Track21
TTITLE21=Track22
TTITLE22=Track23
TTITLE23=Track24
TTITLE24=Track25
TTITLE25=Track26
TTITLE26=Track27
TTITLE27=Track28
TTITLE28=Track29
TTITLE29=Track30
EXTD=
EXTT0=
EXTT1=
EXTT2=
EXTT3=
EXTT4=
EXTT5=
EXTT6=
EXTT7=
EXTT8=
EXTT9=
EXTT10=
EXTT11=
EXTT12=
EXTT13=
EXTT14=
EXTT15=
EXTT16=
EXTT17=
EXTT18=
EXTT19=
EXTT20=
EXTT21=
EXTT22=
EXTT23=
EXTT24=
EXTT25=
EXTT26=
EXTT27=
EXTT28=
EXTT29=
PLAYORDER=
